PathFileType	4	(X/Y/Z)	C:\Users\WrightLab\Desktop\Jo\P2_Trial15.trc
DataRate	CameraRate	NumFrames	NumMarkers	Units	OrigDataRate	OrigDataStartFrame	OrigNumFrames
100.00	100.00	       18	19	mm	100.00	386	       440
Frame#	Time	Headset_Front			Headset_Back			Headset_Left			Headset_Right			Left_Shoulder			Right_Shoulder			Sternum			C7			Left Elbow			Right Elbow			Left Wrist			Right Wrist			Left ASIS			Right ASIS			S2			Left Knee			Right Knee			Left Ankle			Right Ankle			
		X1	Y1	Z1	X2	Y2	Z2	X3	Y3	Z3	X4	Y4	Z4	X5	Y5	Z5	X6	Y6	Z6	X7	Y7	Z7	X8	Y8	Z8	X9	Y9	Z9	X10	Y10	Z10	X11	Y11	Z11	X12	Y12	Z12	X13	Y13	Z13	X14	Y14	Z14	X15	Y15	Z15	X16	Y16	Z16	X17	Y17	Z17	X18	Y18	Z18	X19	Y19	Z19	

386	3.850				-162.59259	1706.12280	2302.98657				42.01814	1678.81567	2399.65625				-110.96674	1485.83020	2485.58057										-194.51492	1167.63794	2597.69043				-156.87373	927.85931	2668.88574	105.70920	154.49779	2071.82251										-138.12553	602.95044	2531.35718				-57.53913	176.46169	2543.03418	
387	3.860				-165.78792	1708.20581	2311.14941				42.18823	1679.49255	2399.81592				-109.50130	1488.40100	2489.86719										-188.30896	1172.80286	2610.41772				-143.65404	937.43738	2686.35522	97.60535	158.18637	2066.34351										-140.35248	603.76746	2537.78052				-62.45687	176.72113	2533.18848	
388	3.870				-169.10815	1709.90637	2319.43799				42.02923	1679.95569	2400.13940				-107.72134	1490.49463	2493.30078										-182.26839	1178.02344	2622.04346				-131.15509	948.51385	2702.58521	87.70660	163.04260	2061.89355										-140.60298	604.00677	2543.11108				-66.52480	177.87253	2524.39331	
389	3.880				-172.35034	1711.03357	2327.52344				41.15077	1680.42310	2400.87915				-105.20925	1491.90051	2495.76880										-176.90100	1182.58130	2632.70166				-119.23562	960.07629	2717.90161	76.39639	166.66722	2056.97168										-141.00038	605.36469	2548.81860							
390	3.890				-175.51326	1712.37561	2335.30713				40.05436	1680.70325	2401.65112				-103.62523	1494.38818	2499.11792										-172.85326	1187.86682	2642.51245				-109.03192	973.90668	2732.36548	63.63065	170.21207	2053.14453										-140.07832	605.53986	2553.59277							
391	3.900				-178.80644	1713.05151	2343.11694				39.11483	1680.84998	2401.94824				-101.84266	1495.62122	2501.33179										-171.45021	1192.60767	2648.96484				-98.90246	987.49841	2744.28418	48.90741	172.05884	2052.61255										-139.11331	606.67596	2557.18872							
392	3.910				-182.45145	1713.73096	2351.38745				37.38611	1681.18750	2402.87451				-100.10959	1496.81042	2503.40234										-170.76479	1196.49719	2653.88525				-89.99429	1001.40894	2755.75049	33.27573	174.59509	2050.03491										-138.23451	607.56183	2560.86719							
393	3.920				-185.15942	1713.61414	2358.09937				35.82656	1680.94226	2402.64355				-98.31873	1497.77747	2505.70117										-169.83775	1199.16040	2658.17847				-82.09389	1015.48218	2766.45142	16.01666	176.49927	2050.13940										-136.84969	608.36902	2562.40625							
394	3.930				-188.44638	1713.85303	2365.17749				33.92748	1681.13171	2402.79468				-97.22247	1498.70642	2507.18872										-168.98842	1200.71912	2662.52100				-74.40355	1029.04321	2775.61719	-1.66350	178.91675	2049.31226										-135.33479	608.30426	2563.26782							
395	3.940				-191.93474	1713.72168	2371.72632				31.83751	1681.36133	2403.61768				-96.11441	1499.80347	2509.79639										-168.25101	1201.85645	2667.27344				-67.27225	1041.68726	2783.43237	-21.02875	180.25845	2050.74194										-134.73038	608.23944	2564.49683							
396	3.950				-194.71692	1713.21057	2377.17383				29.33809	1681.42664	2403.58398				-95.02312	1500.02283	2510.88696										-167.15797	1202.59961	2670.97192				-61.22488	1053.43909	2790.89063	-39.82714	180.42842	2054.82007										-134.33038	608.41736	2564.99414							
397	3.960				-198.02686	1713.14685	2382.82642				26.74911	1681.73657	2404.32202				-93.26064	1500.23511	2511.78662										-165.92410	1204.11145	2674.37549				-55.52321	1063.84290	2796.88379	-60.52760	181.96675	2058.34741										-134.10875	608.35211	2565.10034							
398	3.970										24.21040	1681.38013	2404.23438				-92.35825	1500.81445	2513.14038										-164.36324	1206.20447	2677.56836				-50.63572	1073.89087	2802.73169	-83.95498	182.56425	2057.61182										-134.22549	608.75592	2565.21216							
399	3.980										21.49841	1681.38818	2404.40576				-91.36753	1500.62109	2513.58472										-162.89279	1209.01440	2681.40039				-45.98611	1082.80713	2808.02759	-104.64693	179.90750	2065.10352										-134.47736	609.47943	2565.16992							
400	3.990										18.22199	1681.34290	2404.68140				-89.73404	1500.59534	2514.15039										-161.64304	1211.72302	2686.11816				-41.80301	1090.89050	2812.76978	-127.55861	176.91115	2071.90088										-134.49785	609.58777	2564.88403							
401	4.000										15.04677	1681.30652	2404.84058				-88.44927	1500.41614	2514.70605										-159.88860	1214.28918	2690.43799				-37.70680	1097.60071	2816.57471	-149.82944	174.45607	2078.94067										-134.80161	609.23889	2565.03833							
402	4.010										11.61849	1680.62720	2404.76099				-87.04256	1499.45190	2514.00073										-158.36113	1217.39148	2695.09277				-34.18924	1103.40161	2820.05078	-174.37363	172.49931	2085.15283										-134.80714	608.56512	2565.01099							
403	4.020										8.14105	1680.14136	2405.02734				-86.01725	1499.03870	2513.82886										-156.72365	1220.22571	2698.95703				-31.15531	1108.74158	2823.26489	-197.71190	170.94583	2092.05762										-134.93823	608.30798	2565.47510							
